<?xml version="1.0" encoding="UTF-8" standalone="no"?>
<!-- Created with Inkscape (http://www.inkscape.org/) -->

<svg
   xmlns:dc="http://purl.org/dc/elements/1.1/"
   xmlns:cc="http://creativecommons.org/ns#"
   xmlns:rdf="http://www.w3.org/1999/02/22-rdf-syntax-ns#"
   xmlns:svg="http://www.w3.org/2000/svg"
   xmlns="http://www.w3.org/2000/svg"
   version="1.1"
   width="24"
   height="24"
   id="svg3066">
  <defs
     id="defs3068" />
  <metadata
     id="metadata3071">
    <rdf:RDF>
      <cc:Work
         rdf:about="">
        <dc:format>image/svg+xml</dc:format>
        <dc:type
           rdf:resource="http://purl.org/dc/dcmitype/StillImage" />
        <dc:title></dc:title>
      </cc:Work>
    </rdf:RDF>
  </metadata>
  <g
     transform="translate(-825.14242,-760.90011)"
     id="layer1">
    <path
       d="m 825.23596,770.93136 c -0.813,0.622 3.16325,7.9375 11.90625,7.9375 8.743,0 12.72125,-7.3165 11.90625,-7.9375 -0.386,0.371 -0.83075,0.786 -1.34375,1.25 -0.441,0.417 -1.67975,1.462 -3.59375,2.375 -0.04,0.019 -0.0537,0.0435 -0.0937,0.0625 -0.261,0.122 -0.55875,0.22875 -0.84375,0.34375 -0.73,0.291 -1.5505,0.552 -2.4375,0.75 -0.052,0.012 -0.10625,0.0192 -0.15625,0.0312 -0.17,0.036 -0.325,0.0617 -0.5,0.0937 -1.734,0.318 -2.9375,0.28125 -2.9375,0.28125 0,0 -1.2025,0.0377 -2.9375,-0.28125 -0.175,-0.032 -0.33,-0.0578 -0.5,-0.0937 -0.051,-0.011 -0.10525,-0.0193 -0.15625,-0.0312 -0.887,-0.198 -1.7065,-0.46 -2.4375,-0.75 -0.285,-0.114 -0.58375,-0.22175 -0.84375,-0.34375 -0.039,-0.019 -0.0537,-0.0435 -0.0937,-0.0625 -1.914,-0.913 -3.15275,-1.958 -3.59375,-2.375 -0.513,-0.463 -0.95775,-0.879 -1.34375,-1.25 z"
       id="path3047"
       style="fill:#000000;fill-opacity:1" />
  </g>
</svg>
