<?xml version="1.0" encoding="utf-8"?>
<!-- Generator: Adobe Illustrator 18.1.1, SVG Export Plug-In . SVG Version: 6.00 Build 0)  -->
<svg version="1.1" id="Layer_1" xmlns="http://www.w3.org/2000/svg" xmlns:xlink="http://www.w3.org/1999/xlink" x="0px" y="0px"
	 viewBox="-2.8 74.1 609.3 628.6" enable-background="new -2.8 74.1 609.3 628.6" xml:space="preserve">
<g id="tree_1_">
	<g id="trunk_copy__x2B__trunk_copy_2__x2B__leafs_xA0_Image_1_">
	</g>
</g>
<path fill="#FFFFFF" d="M15.5,591.6H-2.8v-14.9h52.4v14.9H31.4v95.5H15.5V591.6z"/>
<path fill="#FFFFFF" d="M56.6,576.7h25.5c18.6,0,27.8,10.9,27.8,32.5c0,6.3-1,11.9-3,16.6c-2,4.6-5.6,8.3-10.6,10.9l16.9,50.4H96.4
	L81.8,640h-9.3v47.1H56.6V576.7z M72.5,626.1h9c2.7,0,5-0.3,6.6-1.3c1.7-0.7,3-2,3.6-3.3c1-1.3,1.3-3.3,1.7-5.3
	c0.3-2,0.3-4.6,0.3-7.3s0-5.3-0.3-7.3c-0.3-2-1-4-2-5.3c-1-1.7-2.3-2.7-4-3.3c-1.7-0.7-4-1-7-1h-8V626.1z"/>
<path fill="#FFFFFF" d="M239.9,608.5H224v-3.6c0-3.6-1-6.6-2.7-9.3s-4.6-4-8.6-4c-2.3,0-4,0.3-5.3,1.3c-1.3,1-2.3,2-3.3,3.3
	c-0.7,1.3-1.3,2.7-1.7,4.6c-0.3,1.7-0.3,3.6-0.3,5.3c0,2.3,0,4,0.3,5.6c0.3,1.7,0.7,2.7,1.3,4c0.7,1,1.7,2,2.7,3
	c1.3,1,2.7,1.7,5,2.3l12.3,5c3.6,1.3,6.3,3,8.6,4.6c2.3,1.7,4,4,5,6.3c1.3,2.3,2,5.3,2.3,8.3c0.3,3.3,0.7,6.6,0.7,10.9
	c0,4.6-0.3,9-1.3,12.9c-1,4-2.3,7.3-4.6,10.3c-2,3-5,5-8.6,6.6s-8,2.3-12.9,2.3c-4,0-7.3-0.7-10.6-2c-3.3-1.3-6.3-3.3-8.6-5.6
	c-2.3-2.3-4.3-5-5.6-8.3c-1.3-3.3-2-6.6-2-10.3v-6h15.9v5c0,3,1,5.6,2.7,8s4.6,3.6,8.6,3.6c2.7,0,4.6-0.3,6.3-1.3
	c1.7-0.7,2.7-2,3.3-3.3c0.7-1.3,1.3-3,1.3-5.3c0.3-2,0.3-4.3,0.3-7c0-3,0-5.3-0.3-7.3s-0.7-3.3-1.3-4.6c-0.7-1-1.7-2-2.7-2.7
	c-1.3-0.7-2.7-1.7-4.6-2.3l-11.3-4.6c-7-2.7-11.3-6.6-13.6-10.9c-2.3-4.6-3.6-10.3-3.6-17.2c0-4,0.7-8,1.7-11.9c1-3.6,2.7-7,5-9.6
	c2.3-2.7,5-5,8.6-6.3c3.3-1.7,7.3-2.3,11.9-2.3c4,0,7.6,0.7,10.9,2.3c3.3,1.3,6,3.3,8.3,5.6s4,5,5.3,8c1.3,3,2,6,2,9v7.6H239.9z"/>
<path fill="#FFFFFF" d="M262.1,591.6h-18.2v-14.9h52.4v14.9H278v95.5h-15.9V591.6z"/>
<path fill="#FFFFFF" d="M303.2,576.7h25.5c18.6,0,27.8,10.9,27.8,32.5c0,6.3-1,11.9-3,16.6c-2,4.6-5.6,8.3-10.6,10.9l16.9,50.4H343
	L328.4,640h-9.6v47.1h-15.9V576.7H303.2z M319.1,626.1h9c2.7,0,5-0.3,6.6-1.3c1.7-0.7,3-2,3.6-3.3c1-1.3,1.3-3.3,1.7-5.3
	s0.3-4.6,0.3-7.3s0-5.3-0.3-7.3c-0.3-2-1-4-2-5.3c-1-1.7-2.3-2.7-4-3.3c-1.7-0.7-4-1-7-1h-8.3v34.1H319.1z"/>
<path fill="#FFFFFF" d="M368.5,602.9c0-4.3,0.7-8.3,2.3-11.9c1.7-3.3,3.6-6.3,6-8.6c2.7-2.3,5.3-4,8.6-5s6.3-1.7,9.6-1.7
	s6.3,0.7,9.6,1.7s6,3,8.6,5c2.7,2.3,4.6,5,6,8.6c1.7,3.3,2.3,7.3,2.3,11.9v58.3c0,4.6-0.7,8.6-2.3,11.9c-1.7,3.3-3.6,6.3-6,8.3
	c-2.7,2.3-5.3,4-8.6,5c-3.3,1-6.3,1.7-9.6,1.7s-6.3-0.7-9.6-1.7c-3.3-1-6-2.7-8.6-5c-2.7-2.3-4.6-5-6-8.3c-1.7-3.3-2.3-7.3-2.3-11.9
	V602.9z M384.1,661.2c0,4,1,6.6,3.3,8.6c2.3,2,4.6,2.7,7.6,2.7c3,0,5.3-1,7.6-2.7c2-1.7,3.3-4.6,3.3-8.6v-58.3c0-4-1-6.6-3.3-8.6
	c-2-1.7-4.6-2.7-7.6-2.7c-3,0-5.3,1-7.6,2.7c-2.3,1.7-3.3,4.6-3.3,8.6V661.2z"/>
<path fill="#FFFFFF" d="M434.5,602.9c0-4.3,0.7-8.3,2.3-11.9c1.7-3.3,3.6-6.3,6-8.6c2.7-2.3,5.3-4,8.6-5s6.3-1.7,9.6-1.7
	c3.3,0,6.3,0.7,9.6,1.7s6,3,8.6,5c2.7,2.3,4.6,5,6,8.6c1.7,3.3,2.3,7.3,2.3,11.9v58.3c0,4.6-0.7,8.6-2.3,11.9
	c-1.7,3.3-3.6,6.3-6,8.3c-2.7,2.3-5.3,4-8.6,5c-3.3,1-6.3,1.7-9.6,1.7c-3.3,0-6.3-0.7-9.6-1.7c-3.3-1-6-2.7-8.6-5s-4.6-5-6-8.3
	c-1.7-3.3-2.3-7.3-2.3-11.9V602.9z M450.4,661.2c0,4,1,6.6,3.3,8.6s4.6,2.7,7.6,2.7c3,0,5.3-1,7.6-2.7c2-1.7,3.3-4.6,3.3-8.6v-58.3
	c0-4-1-6.6-3.3-8.6c-2-1.7-4.6-2.7-7.6-2.7c-3,0-5.3,1-7.6,2.7c-2.3,1.7-3.3,4.6-3.3,8.6V661.2z"/>
<path fill="#FFFFFF" d="M510.1,591.6h-18.2v-14.9h52.4v14.9H526v95.5h-15.9V591.6z"/>
<path fill="#FFFFFF" d="M602.3,608.5h-15.9v-3.6c0-3.6-1-6.6-2.7-9.3s-4.6-4-8.6-4c-2.3,0-4,0.3-5.3,1.3c-1.3,1-2.3,2-3.3,3.3
	c-0.7,1.3-1.3,2.7-1.7,4.6c-0.3,1.7-0.3,3.6-0.3,5.3c0,2.3,0,4,0.3,5.6c0,1.7,0.7,2.7,1.3,4c0.7,1,1.7,2,2.7,3c1.3,1,2.7,1.7,5,2.3
	l12.3,5c3.6,1.3,6.3,3,8.6,4.6c2.3,1.7,4,4,5,6.3c1.3,2.3,2,5.3,2.3,8.3c0.3,3.3,0.7,6.6,0.7,10.9c0,4.6-0.3,9-1.3,12.9
	c-1,4-2.3,7.3-4.6,10.3c-2,3-5,5-8.6,6.6c-3.6,1.7-8,2.3-12.9,2.3c-4,0-7.3-0.7-10.6-2c-3.3-1.3-6.3-3.3-8.6-5.6s-4.3-5-5.6-8.3
	c-1.3-3.3-2-6.6-2-10.3v-6h15.9v5c0,3,1,5.6,2.7,8c1.7,2.3,4.6,3.6,8.6,3.6c2.7,0,4.6-0.3,6.3-1.3c1.7-1,2.7-2,3.3-3.3
	c0.7-1.3,1.3-3,1.3-5.3c0.3-2,0.3-4.3,0.3-7c0-3,0-5.3-0.3-7.3c-0.3-2-0.7-3.3-1.3-4.6c-0.7-1-1.7-2-2.7-2.7
	c-1.3-0.7-2.7-1.7-4.6-2.3l-11.3-4.6c-7-2.7-11.3-6.6-13.6-10.9s-3.6-10.3-3.6-17.2c0-4,0.7-8,1.7-11.9c1-3.6,2.7-7,5-9.6
	c2.3-2.7,5-5,8.6-6.3c3.3-1.7,7.3-2.3,11.9-2.3c4,0,7.6,0.7,10.9,2.3c3.3,1.3,6,3.3,8.3,5.6c2.3,2.3,4,5,5.3,8c1.3,3,2,6,2,9v7.6
	H602.3z"/>
<path fill="#FFFFFF" d="M-2.4,702.7V695h609v7.6H-2.4z"/>
<path fill="#FFFFFF" d="M329.1,492.1c0,24.2,52.4,20.2,45.4,28.5c-1,1.3-3.6,4.3-13.3,3.6c-7.6-0.3-26.9-10.6-33.5-11.3
	c-15.6-1.3-36.5,20.6-53,24.5c-13.3,2-19.9,0.7-19.2-3.6c1-6.3,31.8-5.3,35.5-26.9c-6.6,3.6-30.8,9.9-33.5,3.3
	c-5.6-13.6,39.5,0.7,30.8-28.8"/>
<path fill="#FFFFFF" d="M308.5,417.9c13.9,0,28.5-7,27.8,15.6c-1,24.5,2,46.1,2.3,57c0,24.2,43.1,19.9,36.1,28.2
	c-1,1.3-3.6,4.3-13.3,3.6c-7.6-0.3-26.9-9.6-33.5-10.3c-15.6-1.3-36.5,19.6-53,23.9c-13.3,2-19.9,0.7-19.2-3.6
	c1-6.3,31.8-5.3,35.5-26.9c-6.6,3.6-30.8,9.9-33.5,3.3c-4.3-10.6,16.9-5.6,21.2-15.9c3-7.3,0.3-29.2,0.3-64.3
	C278.7,418.5,284.3,417.9,308.5,417.9L308.5,417.9z"/>
<path fill="#FFFFFF" d="M168.3,374.1c10.9,0,16.6,9.9,15.6,22.2c-1.3,16.6-6.3,22.5-14.9,22.5c-11.6-0.3-13.3-9.9-13.3-22.5
	C155.4,384.1,159.7,374.1,168.3,374.1L168.3,374.1z"/>
<path fill="#FFFFFF" d="M205.8,392c10.9,0,16.6,7.6,15.9,19.9c-1.3,16.6-6.3,25.2-14.9,24.9c-7,0-13.3-11.3-13.3-22.5
	C193.2,404.6,194.2,392,205.8,392L205.8,392z"/>
<path fill="#FFFFFF" d="M265.4,120.5c11.6,0,17.2-10.6,15.6-23.2c-2.3-16.9-8-23.2-16.9-23.2c-12.3,0.3-13.6,10.3-13.3,23.2
	C251.2,110.2,256.5,120.5,265.4,120.5L265.4,120.5z"/>
<path fill="#FFFFFF" d="M196.5,149.3c-11.9,0-17.9-10.6-16.9-23.5c1.3-17.2,7-23.5,15.9-23.2c12.6,0.3,14.3,10.3,14.6,23.2
	C210.4,138.7,205.8,149.3,196.5,149.3L196.5,149.3z"/>
<path fill="#FFFFFF" d="M114.6,298.9c-11.9,0-18.6-8.3-17.2-21.9c1.7-17.9,7.6-27.2,16.9-27.2c7.6,0,14.3,12.3,14.6,24.2
	C128.9,284.9,127.5,298.9,114.6,298.9L114.6,298.9z"/>
<path fill="#FFFFFF" d="M230.3,125.8c10.3,0,15.3-8.3,13.9-18.6c-1.7-13.6-7-18.6-14.9-18.6c-10.9,0.3-11.9,8.6-11.9,18.6
	C217.7,117.5,222.3,125.8,230.3,125.8L230.3,125.8z"/>
<path fill="#FFFFFF" d="M248.2,456.3c10.3,0,15.3-7.6,13.9-20.2c-2-16.6-7.3-25.2-15.3-24.9c-6.6,0-11.9,11.3-11.6,22.5
	C235.6,443.4,236.9,456.3,248.2,456.3L248.2,456.3z"/>
<path fill="#FFFFFF" d="M136.8,358.9c-8-0.3-12.6,4.6-11.9,12.6c1,10.9,4.6,16.9,10.9,17.2c5.3,0,9.9-7,9.9-14.6
	C146.4,367.8,145.8,359.2,136.8,358.9L136.8,358.9z"/>
<path fill="#FFFFFF" d="M446.5,148.3c10.6,0,16.2,9.6,15.9,20.9c-0.7,15.6-5.3,21.2-13.6,21.2c-11.3-0.3-12.9-9.6-13.6-21.2
	C434.2,158,438.2,148.3,446.5,148.3L446.5,148.3z"/>
<path fill="#FFFFFF" d="M300.3,76.1c10.3,0,15.9,7,15.3,18.2c-1,15.3-6,23.2-13.9,22.9c-6.6,0-12.9-10.3-13.3-20.6
	C288.3,87.7,289,76.1,300.3,76.1L300.3,76.1z"/>
<path fill="#FFFFFF" d="M278.7,219.3c11.9,0,17.2-10.9,15.6-23.9c-2.3-17.6-8-23.9-17.2-23.9c-12.3,0.3-13.6,10.6-13.3,23.9
	C264.4,208.7,269.4,219.3,278.7,219.3L278.7,219.3z"/>
<path fill="#FFFFFF" d="M238.9,176.5c10.6,0,16.2,7,15.3,18.2c-1,15.3-6.3,22.9-14.3,22.9c-6.6,0-12.9-10.3-13.3-20.6
	C226.7,188.1,227.6,176.5,238.9,176.5L238.9,176.5z"/>
<path fill="#FFFFFF" d="M476.3,227.3c9.9,0,14.6-7.3,12.9-18.9c-2.3-15.6-7.6-23.5-15.3-23.5c-6.3,0-11.3,10.6-10.6,21.2
	C463.7,215,465.7,227.3,476.3,227.3L476.3,227.3z"/>
<path fill="#FFFFFF" d="M416,160.3C404.7,160,399,149,400,136.1c1.3-17.2,6.6-23.2,15.3-22.9c11.6,0.7,13.3,10.9,13.6,23.9
	C429.2,150.3,424.6,160.6,416,160.3L416,160.3z"/>
<path fill="#FFFFFF" d="M458.4,256.4c-9-0.3-13.3,5-12.3,13.6c1.3,11.9,6,17.9,12.9,18.2c5.6,0,10.3-7.6,10.3-15.6
	C469,266,467.7,256.8,458.4,256.4L458.4,256.4z"/>
<path fill="#FFFFFF" d="M344,263.7c-9-0.3-13.3,4.3-12.6,11.9c1.3,10.3,5.6,15.9,12.3,15.9c5.6,0,10.6-6.6,10.6-13.6
	C354.6,272,353.6,264.1,344,263.7L344,263.7z"/>
<path fill="#FFFFFF" d="M116.3,350.9c9.9,0.3,15.3-8.6,14.6-19.6c-1-14.9-5.6-20.6-13.3-20.9c-10.6-0.3-12.3,8.6-12.6,19.6
	C104.7,341.3,108.6,350.6,116.3,350.9L116.3,350.9z"/>
<path fill="#FFFFFF" d="M445.8,294.2c11.9,0,18.9,8.3,18.2,21.9c-0.7,18.2-6.3,27.8-15.6,27.5c-7.6,0-15.3-12.3-15.9-24.9
	C431.9,308.1,432.5,294.2,445.8,294.2L445.8,294.2z"/>
<path fill="#FFFFFF" d="M489.6,280c11.6,0,16.6-9.9,14.9-21.5c-2.7-15.9-8.6-21.5-17.2-21.5c-12.3,0.3-13.3,9.6-12.3,21.5
	C475.3,270.4,480.6,280,489.6,280L489.6,280z"/>
<path fill="#FFFFFF" d="M369.5,458c12.3-0.7,17.6-12.3,15.3-26.2c-3.3-18.6-9.6-25.2-19.2-24.5c-12.9,0.7-13.6,11.9-12.6,25.9
	C354,447.1,359.9,458.3,369.5,458L369.5,458z"/>
<path fill="#FFFFFF" d="M448.1,404.6c12.3-0.7,17.9-9.3,15.3-23.2c-3.3-18.2-10.3-27.5-19.6-27.2c-7.6,0.3-13.3,12.9-12.3,25.5
	C432.2,391,434.9,405.3,448.1,404.6L448.1,404.6z"/>
<path fill="#FFFFFF" d="M477,343.6c8.6-0.3,13.6,4.6,13.3,12.6c-0.3,10.9-4,16.9-10.6,16.9c-5.6,0-10.9-7-11.6-14.6
	C467.3,352.2,467.7,344,477,343.6L477,343.6z"/>
<path fill="#FFFFFF" d="M495.5,331c-10.6,0.3-16.9-8.6-16.6-19.6c0-14.9,4.6-20.6,12.9-20.6c11.3-0.3,13.6,8.6,14.6,19.6
	C507.5,321.7,503.8,330.7,495.5,331L495.5,331z"/>
<path fill="#FFFFFF" d="M415,431.1c-12.3,0.7-18.9-6.3-18.6-17.9c0.3-15.3,5.6-23.5,15.3-23.9c7.6-0.3,15.3,9.9,16.2,20.2
	C428.2,418.9,427.9,430.8,415,431.1L415,431.1z"/>
<path fill="#FFFFFF" d="M413,283.6c9,0,13.9,7.3,13.6,19.6c-0.3,16.2-4.6,24.5-11.3,24.2c-5.6,0-11.3-10.9-11.6-21.9
	C402.7,296.2,403.4,283.6,413,283.6L413,283.6z"/>
<path fill="#FFFFFF" d="M374.2,98.6c11.6,0,17.9,9.6,17.2,21.2c-1,15.6-6.3,21.5-15.3,21.2c-12.3-0.3-14.3-9.6-14.9-21.2
	C360.9,107.9,365.2,98.6,374.2,98.6L374.2,98.6z"/>
<path fill="#FFFFFF" d="M173.6,166.3c-10.9-1-17.2,9.9-16.9,23.9c0.3,18.6,5,25.9,13.6,26.5c11.6,0.7,13.9-10.3,14.9-24.2
	C185.9,178.5,181.9,166.9,173.6,166.3L173.6,166.3z"/>
<path fill="#FFFFFF" d="M131.5,156.3c-10.9,0-16.6,8.3-15.6,21.5c1.7,17.9,7.3,27.2,15.9,27.2c7,0,13.3-12.3,12.9-24.5
	C144.8,170.2,143.4,156.3,131.5,156.3L131.5,156.3z"/>
<path fill="#FFFFFF" d="M444.8,210c10.6,0,16.2,9,15.6,20.2c-0.7,14.9-5.3,20.2-13.6,20.2c-11.3-0.3-12.9-9-13.6-20.2
	C432.9,219,436.8,210,444.8,210L444.8,210z"/>
<path fill="#FFFFFF" d="M157,121.8c11.6,0,17.9,6.6,16.6,17.6c-1.3,14.6-7.3,22.2-16.2,22.2c-7.6,0-13.9-9.9-14.3-19.9
	C143.4,133.1,144.4,121.8,157,121.8L157,121.8z"/>
<path fill="#FFFFFF" d="M334.4,402.6c10.9,0,15.9-10.3,14.3-22.9c-2.3-16.9-7.6-22.9-15.9-22.9c-11.3,0.3-12.6,10.3-11.9,22.9
	C321.1,392.4,326.1,402.6,334.4,402.6L334.4,402.6z"/>
<path fill="#FFFFFF" d="M262.1,402.6c10.9,0,16.2-8,14.6-20.2c-2-16.9-7.6-25.5-15.9-25.2c-7,0-12.6,11.3-12.3,22.9
	C248.9,389.7,250.5,402.6,262.1,402.6L262.1,402.6z"/>
<path fill="#FFFFFF" d="M299.3,409.9c-9.6,0-14.6-9.3-13.9-20.6c1-14.9,5.3-20.6,12.6-20.6c10.3,0.3,11.6,9.3,11.9,20.6
	C310.5,400.6,306.9,409.9,299.3,409.9L299.3,409.9z"/>
<path fill="#FFFFFF" d="M375.8,393c-11.9,0-18.6-9-17.9-22.9c1-18.9,6.6-28.5,15.9-28.5c7.6,0,14.9,12.9,15.6,25.5
	C389.4,378.1,388.8,393,375.8,393L375.8,393z"/>
<path fill="#FFFFFF" d="M185.9,375.4c11.3,0,16.6-11.6,15.3-25.5c-2-18.6-7.3-25.5-15.9-25.2c-11.6,0.3-12.9,11.3-12.9,25.2
	C172.6,363.8,177.3,375.4,185.9,375.4L185.9,375.4z"/>
<path fill="#FFFFFF" d="M144.4,257.1c10.9,0,16.6-7.6,15.3-19.9c-1.7-16.6-7.3-24.9-15.6-24.9c-7,0-12.9,11.3-12.6,22.2
	C131.2,244.2,132.5,257.1,144.4,257.1L144.4,257.1z"/>
<path fill="#FFFFFF" d="M347.7,145c8.3,0,12.9,5,12.3,12.9c-0.7,10.6-4.6,16.2-11.3,15.9c-5.3,0-10.3-7.3-10.6-14.6
	C338,153,338.7,145,347.7,145L347.7,145z"/>
<path fill="#FFFFFF" d="M384.8,202.1c-10.6,0-16.2-10.6-15.6-23.2c0.7-16.9,5.6-23.2,13.6-22.9c10.9,0.3,12.9,10.3,13.6,22.9
	C396.7,191.8,393.1,202.1,384.8,202.1L384.8,202.1z"/>
<path fill="#FFFFFF" d="M240.2,168.9c-11.6,0-17.9-6.6-16.9-17.2c1.3-14.3,7-21.5,15.9-21.5c7.3,0,14.3,9.6,14.3,19.2
	C254.2,158,252.8,168.9,240.2,168.9L240.2,168.9z"/>
<path fill="#FFFFFF" d="M224,386.7c10.9,0.7,16.9-8,15.9-22.2c-1.3-18.9-6.6-28.8-15.3-28.8c-7-0.3-13.3,11.9-13.3,24.9
	C211.1,371.8,212.4,386.4,224,386.7L224,386.7z"/>
<path fill="#FFFFFF" d="M339.4,131.4c-10.9-0.3-16.9-9-15.6-21.9c1.7-17.6,7-26.2,15.6-25.9c7,0.3,13.3,12.6,13.3,24.2
	C352.6,118.5,351.3,132.1,339.4,131.4L339.4,131.4z"/>
<path fill="#FFFFFF" d="M347,297.5c-11.9,0-17.6,11.3-15.9,24.5c2.3,18.2,8.3,24.9,17.6,24.9c12.6-0.3,13.9-11.3,13.3-24.9
	C361.6,308.5,355.9,297.5,347,297.5L347,297.5z"/>
<path fill="#FFFFFF" d="M416.6,227.9c11.9,0,18.6,10.9,17.9,24.2c-0.7,17.9-6.3,24.5-15.6,24.2c-12.6-0.3-14.9-10.9-15.6-24.2
	C403,238.9,407.7,227.9,416.6,227.9L416.6,227.9z"/>
<path fill="#FFFFFF" d="M382.5,289.6c-10.6,0-15.6,9-13.9,20.2c2,14.9,7.6,20.2,15.6,20.2c11.3-0.3,12.3-9,11.6-20.2
	C395.7,298.5,390.8,289.6,382.5,289.6L382.5,289.6z"/>
<path fill="#FFFFFF" d="M311.2,349.9c-10.9,0-16.6-6.3-15.9-16.6c1-13.6,6.3-20.9,14.6-20.6c7,0,13.3,9.3,13.6,18.6
	C323.8,339.3,322.8,349.9,311.2,349.9L311.2,349.9z"/>
<path fill="#FFFFFF" d="M180.9,225.9c9.9,0.3,14.9,10.3,13.6,22.2c-1.7,15.9-6.6,21.5-14.3,20.9c-10.6-0.7-11.6-10.3-11.6-22.2
	C169,234.9,173.3,225.6,180.9,225.9L180.9,225.9z"/>
<path fill="#FFFFFF" d="M213.4,325.7c-9.3,0-14.3-6.6-13.3-14.9c1-10.9,5.6-14.9,12.6-14.9c9.9,0,11.3,6.6,11.6,14.9
	C224.7,319.1,220.7,325.7,213.4,325.7L213.4,325.7z"/>
<path fill="#FFFFFF" d="M275.1,299.2c11.3,0.7,17.2,9.3,15.9,23.2c-1.7,18.6-7.3,28.2-16.2,27.5c-7.3-0.3-13.6-13.3-13.3-26.2
	C261.5,313.1,262.8,298.9,275.1,299.2L275.1,299.2z"/>
<path fill="#FFFFFF" d="M148.7,267c-8.6-0.3-12.9,4.6-12.3,12.6c1,10.9,5,16.9,11.6,17.2c5.6,0,10.3-7,10.6-14.6
	C158.7,276,157.7,267.4,148.7,267L148.7,267z"/>
<path fill="#FFFFFF" d="M109,243.5c10.6,0.3,15.9-8.6,15.3-19.6c-1-14.9-6-20.6-13.9-20.6c-10.9-0.3-12.6,8.6-12.9,19.6
	C97,233.9,101,243.2,109,243.5L109,243.5z"/>
<path fill="#FFFFFF" d="M149.7,347.6c10.9,0.7,16.9-6.3,15.9-17.9c-1.3-15.3-6.6-23.5-14.9-23.9c-7-0.3-13.3,9.6-13.6,20.2
	C137.1,335.3,138.1,347.3,149.7,347.6L149.7,347.6z"/>
<path fill="#FFFFFF" d="M407.7,377.1c10.9,0,15.9-10.3,13.9-22.9c-2.3-16.6-8-22.9-16.2-22.5c-11.3,0.3-12.3,9.9-11.9,22.5
	C394.4,366.8,399.4,377.1,407.7,377.1L407.7,377.1z"/>
<path fill="#FFFFFF" d="M417.6,217c10.6,0,15.6-7.3,13.9-19.2c-2.3-15.9-8-24.2-16.2-23.9c-6.6,0-11.9,10.9-11.6,21.5
	C404.4,204.4,406,217,417.6,217L417.6,217z"/>
<path fill="#FFFFFF" d="M203.4,154.6c9.9,0,15.3,7.3,14.3,19.2c-1,15.9-6,24.2-13.6,23.9c-6.3,0-11.9-10.9-12.3-21.5
	C191.8,166.9,192.5,154.6,203.4,154.6L203.4,154.6z"/>
<path fill="#FFFFFF" d="M314.2,129.1c-10.9,0.3-15.9,11.6-13.9,24.9c3,17.9,8.6,24.2,17.2,23.5c11.6-0.7,12.6-11.6,11.6-24.9
	C328.1,139.4,322.8,128.8,314.2,129.1L314.2,129.1z"/>
<path fill="#FFFFFF" d="M183.2,314.4c-8,0.3-12.6-5.6-11.9-15.9c0.7-13.6,4.3-20.9,10.3-21.2c5-0.3,9.9,8.6,10.3,17.9
	C192.5,303.2,191.8,314.1,183.2,314.4L183.2,314.4z"/>
<path fill="#FFFFFF" d="M274.7,126.1c11.3,0,17.2,8.6,16.2,18.9c-1.3,13.9-6.6,19.2-15.3,18.9c-11.9-0.3-13.6-8.6-13.9-18.9
	C261.5,134.8,266.1,126.1,274.7,126.1L274.7,126.1z"/>
<path fill="#FFFFFF" d="M243.2,339c-9,0.3-13.9-8-13.6-18.2c0.3-13.9,4.6-18.9,11.6-19.2c9.6-0.3,11.3,8,11.9,18.2
	C253.5,330,250.2,338.6,243.2,339L243.2,339z"/>
<path fill="#FFFFFF" d="M347.7,227.6c10.6,0,15.6-9.9,13.9-21.9c-2.3-15.9-7.6-21.9-15.6-21.5c-11.3,0.3-12.3,9.6-11.6,21.5
	C334.7,218,339.4,227.6,347.7,227.6L347.7,227.6z"/>
<path fill="#FFFFFF" d="M246.5,259.7c10.6,0,15.9-6.3,14.6-16.2c-2-13.3-7.3-20.2-15.6-20.2c-6.6,0-12.3,9-12.3,18.2
	C233.6,249.5,235.3,259.7,246.5,259.7L246.5,259.7z"/>
<path fill="#FFFFFF" d="M280.4,259.7c-9.3,0-14.3-7.6-13.6-16.9c1-12.3,5.3-16.9,12.6-16.6c9.9,0,11.3,7.6,11.6,16.6
	C291.6,252.4,287.7,259.7,280.4,259.7L280.4,259.7z"/>
<path fill="#FFFFFF" d="M211.4,288.3c10.9,0.3,16.6-6,15.9-16.2c-1.3-13.9-6.6-21.2-14.9-21.2c-7,0-13.3,9-13.3,18.2
	C198.8,277.3,199.8,287.9,211.4,288.3L211.4,288.3z"/>
<path fill="#FFFFFF" d="M383.1,245.5c-9.3,0-14.3-8.3-13.6-18.2c0.7-13.6,5-18.2,12.3-18.2c9.6,0.3,11.3,8.3,11.9,18.2
	C393.7,237.2,390.4,245.5,383.1,245.5L383.1,245.5z"/>
<path fill="#FFFFFF" d="M214.7,240.5c-8,0.3-12.3-5.6-11.9-15.6c0.3-13.6,4-20.6,10.3-20.9c5-0.3,9.9,8.6,10.3,17.6
	C223.7,229.6,223.3,240.2,214.7,240.5L214.7,240.5z"/>
<path fill="#FFFFFF" d="M315.8,220.3c-9,0.3-13.9-7.6-13.6-17.6c0.3-13.3,4.3-18.6,11.3-18.6c9.3-0.3,11.3,7.6,11.9,17.6
	C325.8,211.7,322.8,220,315.8,220.3L315.8,220.3z"/>
<path fill="#FFFFFF" d="M309.9,226.3c10.3,0,15.6,7.3,14.9,19.2c-1,15.9-5.6,24.2-13.6,24.2c-6.6,0-12.6-10.9-12.9-21.5
	C298.3,238.5,298.9,226.3,309.9,226.3L309.9,226.3z"/>
<path fill="#FFFFFF" d="M282,295.2c-9.3,0-14.3-6.6-13.6-14.9c1-10.9,5.3-14.9,12.6-14.9c9.9,0,11.3,6.6,11.6,14.9
	C293,288.6,289.3,295.2,282,295.2L282,295.2z"/>
<path fill="#FFFFFF" d="M250.5,295.9c-9,0.3-13.9-6-13.6-13.6c0.7-10.3,4.6-14.3,11.6-14.3c9.6-0.3,11.3,6,11.6,13.6
	C260.5,289.6,257.2,295.9,250.5,295.9L250.5,295.9z"/>
<path fill="#FFFFFF" d="M362.9,268c-1.3-12.6,3.3-19.6,10.3-18.6c9.3,1,13.3,7,14.3,16.9c1.3,13.6-3.6,15.6-10.6,16.2
	C369.9,282.6,363.9,277.6,362.9,268L362.9,268z"/>
<path fill="#FFFFFF" d="M345.7,258.1c-7,0.3-10.9-3.6-10.6-10.3c0.3-9,3.3-13.6,9-13.6c4.3,0,8.6,5.6,9.3,11.6
	C353.3,250.8,353,257.8,345.7,258.1L345.7,258.1z"/>
<path fill="#FFFFFF" d="M312.8,304.5c-9,0.3-13.9-6-13.6-13.6c0.3-10.3,4.6-14.3,11.3-14.6c9.6-0.3,11.3,6,11.9,13.6
	C323.1,297.9,319.8,304.2,312.8,304.5L312.8,304.5z"/>
<g>
	<path fill="#FFFFFF" d="M173.8,662.5c0,3.6-0.7,7-2,10.1c-1.4,3.1-3.2,5.8-5.5,8.2c-2.3,2.3-5.1,4.2-8.2,5.5c-3.1,1.4-6.4,2-10,2
		c-3.5,0-6.9-0.7-10-2c-3.1-1.4-5.8-3.2-8.2-5.5c-2.3-2.3-4.2-5.1-5.5-8.2c-1.4-3.1-2-6.5-2-10.1v-86.1h15.9v84.5
		c0,4,0.9,6.9,2.8,8.7s4.2,2.8,7,2.8c2.8,0,5.1-0.9,7-2.8c1.9-1.9,2.8-4.8,2.8-8.7v-84.5h15.9V662.5z"/>
</g>
</svg>
