<?xml version="1.0" encoding="UTF-8" standalone="no"?>
<!-- Created with Inkscape (http://www.inkscape.org/) -->

<svg
   xmlns:dc="http://purl.org/dc/elements/1.1/"
   xmlns:cc="http://creativecommons.org/ns#"
   xmlns:rdf="http://www.w3.org/1999/02/22-rdf-syntax-ns#"
   xmlns:svg="http://www.w3.org/2000/svg"
   xmlns="http://www.w3.org/2000/svg"
   version="1.1"
   width="100%"
   height="100%"
   viewBox="-2.8 74.1 609.3 628.6"
   id="Layer_1"
   xml:space="preserve"><metadata
     id="metadata179"><rdf:RDF><cc:Work
         rdf:about=""><dc:format>image/svg+xml</dc:format><dc:type
           rdf:resource="http://purl.org/dc/dcmitype/StillImage" /><dc:title></dc:title></cc:Work></rdf:RDF></metadata><defs
     id="defs177" /><g
     id="tree_1_"><g
       id="trunk_copy__x2B__trunk_copy_2__x2B__leafs_xA0_Image_1_" /></g><path
     d="m 253.84375,2.28125 c -16.53445,0.403279 -18.27828,13.846493 -17.875,31.1875 0.5377,17.341009 7.66104,31.1875 19.625,31.1875 15.59346,0 23.11957,-14.249771 20.96875,-31.1875 C 273.47069,10.750686 265.8077,2.28125 253.84375,2.28125 z M 302.5,4.96875 c -15.19019,0 -16.13442,15.598544 -16,27.5625 0.53771,13.845919 9.00285,27.6875 17.875,27.6875 10.61969,0.40328 17.34324,-10.214011 18.6875,-30.78125 C 323.86906,14.381739 316.34592,4.96875 302.5,4.96875 z M 354,15.0625 c -10.93043,0.33383 -17.69241,11.892787 -19.90625,34.8125 -1.74754,17.341009 6.31627,29.03422 20.96875,29.4375 15.99675,0.94099 17.74057,-17.335131 17.875,-31.71875 0,-15.593469 -8.46515,-32.12797 -17.875,-32.53125 -0.36127,-0.0126 -0.70991,-0.01077 -1.0625,0 z m -146.9375,6.71875 c -14.65248,0.403279 -16,11.557351 -16,25 0.40328,13.845919 6.58963,25 17.34375,25 13.84592,0 20.56947,-11.154081 18.6875,-25 -2.28525,-18.281999 -9.41156,-25 -20.03125,-25 z m 194.78125,13.4375 c -12.09838,0 -17.87203,12.503251 -17.46875,28.5 0.80655,15.593459 3.46555,28.09672 20,28.5 12.09838,0.40328 19.24948,-7.529481 20.59375,-28.5 0.94098,-15.593469 -7.53153,-28.5 -23.125,-28.5 z M 160.5,40.59375 c -11.3281,0.151972 -18.55707,8.788703 -20.25,31.1875 -1.34427,17.341009 6.72201,31.59375 22.71875,31.59375 12.50166,0 18.68453,-14.252741 18.28125,-31.59375 -0.40328,-17.341009 -2.68727,-30.78422 -19.625,-31.1875 -0.37387,-0.0126 -0.75958,-0.0049 -1.125,0 z m 295.5,14.25 c -11.05214,0.128318 -17.77582,8.382443 -19.46875,30.78125 -1.34426,17.34101 6.30981,32.12797 21.5,32.53125 11.56067,0.40328 17.74703,-13.44321 17.34375,-31.1875 -0.40328,-17.475439 -2.68778,-31.18401 -18.28125,-32.125 -0.36547,-0.0126 -0.73723,-0.0041 -1.09375,0 z m -346.125,11.5625 c -16.937734,0 -18.28422,15.18932 -18.6875,26.75 0.537706,13.44264 9.00234,26.75 19.21875,26.75 11.96395,0 20.03371,-10.21749 21.78125,-29.84375 1.74755,-14.786909 -6.71904,-23.65625 -22.3125,-23.65625 z m 158.21875,5.78125 c -11.56067,0 -17.76886,11.694751 -17.5,25.40625 0.40328,13.84592 2.69076,25.00297 18.6875,25.40625 11.6951,0.40328 18.81496,-6.72098 20.5625,-25.40625 1.34427,-13.845919 -6.55981,-25.40625 -21.75,-25.40625 z m 53.09375,4.03125 c -14.65248,0.40328 -21.37603,15.590031 -18.6875,33.46875 4.03279,24.06233 11.56432,32.53473 23.125,31.59375 15.59346,-0.94099 16.93802,-15.59004 15.59375,-33.46875 C 339.87449,90.068211 332.74818,75.81547 321.1875,76.21875 z M 220.375,77.6875 c -11.96395,0 -19.62746,9.683271 -21.375,28.90625 -1.34427,14.2492 7.12529,23.125 22.71875,23.125 16.93774,0 18.81599,-14.65808 17.875,-26.21875 0,-12.904939 -9.40562,-25.8125 -19.21875,-25.8125 z m 145.84375,19.90625 c -12.09838,0 -13.04068,10.75931 -12.90625,19.09375 0.40328,9.81313 7.1254,19.625 14.25,19.625 9.00657,0.40328 14.24651,-7.1258 15.1875,-21.375 0.80656,-10.61969 -5.37386,-17.34375 -16.53125,-17.34375 z m 132.8125,4.4375 c -11.15739,0 -16.53176,13.03799 -15.1875,28.09375 0.94099,15.59347 3.09106,28.09672 18.28125,28.5 11.15739,0 17.34027,-7.52947 18.28125,-28.5 0.40328,-15.19018 -7.1258,-28.09375 -21.375,-28.09375 z M 172.25,110.5 c -14.65248,0 -15.59375,16.5296 -15.59375,29.03125 0.53771,14.24921 8.06239,28.90625 16.53125,28.90625 10.21641,0.40328 16.93698,-10.7512 18.28125,-32.125 C 192.81301,120.31576 185.55822,110.5 172.25,110.5 z m 240.15625,1.875 c -10.16433,0.15159 -16.36968,8.77312 -17.28125,30.78125 -0.80656,16.93773 6.71955,31.1875 20.96875,31.1875 11.1574,0 15.99703,-13.84649 15.59375,-31.1875 -0.94099,-16.93773 -3.62877,-30.37797 -18.28125,-30.78125 -0.33607,-0.0126 -0.67212,-0.005 -1,0 z m -336.8125,0.40625 c -14.652479,0 -22.313014,11.16196 -20.96875,28.90625 2.28525,24.06233 9.814327,36.5625 21.375,36.5625 9.40985,0 17.850206,-16.53747 17.3125,-32.9375 0.134427,-13.84592 -1.722005,-32.53125 -17.71875,-32.53125 z m 53.90625,13.375 c -13.00221,0.57104 -20.40932,14.54403 -20.03125,32.1875 0.40328,25.00332 6.72058,34.81844 18.28125,35.625 15.59347,0.94098 18.68698,-13.84597 20.03125,-32.53125 0.94098,-18.8197 -4.43635,-34.41219 -15.59375,-35.21875 -0.91578,-0.084 -1.82069,-0.10057 -2.6875,-0.0625 z m 141.8125,7.0625 c -16.53445,0.40328 -18.27828,14.24628 -17.875,32.125 0.80656,17.87871 7.52959,32.125 20.03125,32.125 15.99675,0 23.11958,-14.64956 20.96875,-32.125 -3.0918,-23.65905 -10.75777,-32.125 -23.125,-32.125 z m 185.78125,3.21875 c -8.87214,0 -15.99703,14.65705 -15.59375,28.90625 0.94098,12.09838 3.09404,29.03125 18.6875,29.03125 14.2492,0 20.97274,-9.81575 18.6875,-25.8125 -3.09181,-21.3738 -10.75828,-32.52828 -21.78125,-32.125 z m -237.125,3.5 c -15.19019,0 -16.39682,15.59855 -16.53125,27.5625 0.53771,13.84592 9.00285,27.6875 17.875,27.6875 10.75411,0 17.87448,-10.214 19.21875,-30.78125 1.20983,-15.05576 -6.3133,-24.46875 -20.5625,-24.46875 z M 320.25,150.15625 c -9.40985,0 -14.78422,7.12128 -15.1875,25 -0.40328,13.44264 6.18287,24.05953 18.28125,23.65625 9.40985,-0.40328 13.44396,-11.55735 12.90625,-25 -0.80656,-13.44264 -3.49834,-24.05953 -16,-23.65625 z m 44.6875,0.0937 c -0.32896,-1.4e-4 -0.66393,0.0145 -1,0.0312 -15.19019,0.40328 -16.53473,12.90951 -15.59375,28.90625 0.40328,16.53445 6.7176,29.4375 17.875,29.4375 14.2492,0 20.97275,-13.30633 18.6875,-29.4375 -2.99519,-20.70587 -9.77084,-28.93305 -19.96875,-28.9375 z m 170.9375,0.96875 c -8.46886,0 -15.19098,14.2508 -14.25,28.5 0.53771,11.96395 3.21954,28.5 17.46875,28.5 13.30821,0 19.62899,-9.81279 17.34375,-25.40625 -3.09181,-20.97053 -10.21166,-31.59375 -20.5625,-31.59375 z m -490,24.75 c -13.455713,0.34909 -15.609323,12.01893 -16,26.34375 -0.672132,14.7869 4.714635,27.28422 15.46875,27.6875 14.2492,0.40328 21.369059,-11.55684 20.5625,-26.34375 -1.344264,-20.02954 -8.067812,-27.6875 -18.6875,-27.6875 -0.45789,-0.0126 -0.909695,-0.0113 -1.34375,0 z m 139.40625,0.9375 c -8.46886,0.40333 -13.44047,9.8118 -13.84375,28.0938 -0.53771,13.44264 5.24588,21.37203 16,20.96875 11.56067,-0.40328 12.09078,-14.65213 11.6875,-25.40625 -0.5377,-12.09837 -7.12243,-24.05953 -13.84375,-23.65625 z M 412.0625,183.75 c -9.81313,0 -15.59027,6.18676 -16.53125,24.46875 -0.94099,13.30822 5.7796,24.46875 18.28125,24.46875 9.81313,0 14.25,-11.16053 14.25,-24.46875 -0.80655,-13.30822 -3.09506,-24.06547 -16,-24.46875 z m 84.6875,1.21875 c -10.75411,0 -15.99702,12.10049 -15.59375,27.15625 0.94099,15.05576 3.09106,26.75297 18.28125,27.15625 11.15739,0 17.34027,-7.12672 18.28125,-27.15625 0.80656,-15.05576 -6.71955,-27.15625 -20.96875,-27.15625 z M 92.53125,188.0625 c -9.40985,0 -17.340779,15.19127 -16.9375,29.84375 -0.403279,13.03937 1.347006,30.375 17.34375,30.375 14.65248,0 22.31004,-10.21555 20.5625,-26.75 -2.28525,-22.31479 -9.81136,-33.46875 -20.96875,-33.46875 z m 136.3125,14.78125 c -8.87215,0 -16.5625,12.10152 -16.5625,24.46875 0.53771,10.75412 2.85049,24.46875 17.90625,24.46875 14.2492,0 21.37254,-8.47303 19.625,-21.78125 -2.68853,-17.87871 -9.81136,-27.15625 -20.96875,-27.15625 z m -87.8125,3.5 c -9.62779,0.38177 -15.04159,12.59691 -15.5625,28.09375 0,15.99675 1.34455,28.90277 15.59375,29.84375 10.35083,0.80656 16.9335,-6.71995 19.21875,-28.09375 1.74754,-15.99675 -4.97303,-29.44047 -18.28125,-29.84375 -0.31926,-0.0126 -0.65818,-0.0123 -0.96875,0 z m 131.5625,0.40625 c -8.72574,0.40761 -13.86476,6.81145 -15.125,22.3125 -0.94099,12.50166 5.77959,22.71875 18.28125,22.71875 9.81313,0 15.05656,-9.81382 14.25,-22.71875 -0.40328,-12.09838 -2.28554,-22.3125 -15.59375,-22.3125 -0.61332,-0.0252 -1.23078,-0.0272 -1.8125,0 z m 42.8125,0.125 c -14.78691,0 -15.59375,16.39814 -15.59375,29.4375 0.40328,14.24921 8.47161,28.90625 17.34375,28.90625 10.75411,0 16.93699,-11.15745 18.28125,-32.53125 0.94099,-15.99674 -6.18533,-25.8125 -20.03125,-25.8125 z m 143.4375,2.15625 c -11.96395,0 -18.27828,14.78696 -17.875,32.53125 0.94099,17.87871 4.03102,32.12797 20.96875,32.53125 12.50165,0.40328 20.02776,-8.46892 20.96875,-32.53125 0.94098,-17.87872 -8.06576,-32.53125 -24.0625,-32.53125 z M 361.375,217.5 c -7.66231,0 -11.69047,6.18287 -12.09375,18.28125 -0.40328,9.00657 4.84015,14.24703 14.25,13.84375 9.81313,-0.40328 10.20933,-9.80993 10.34375,-16.53125 C 372.93402,225.02816 367.15533,217.5 361.375,217.5 z m 192.5,3.75 c -16.53445,0.40328 -17.87551,12.9095 -16.53125,28.90625 0.40328,15.99674 7.52662,28.90625 19.625,28.90625 15.59347,0 22.3165,-13.31279 20.03125,-28.90625 C 573.37049,228.78244 565.43568,221.25 553.875,221.25 z m -155.09375,16.5625 c -8.42643,-0.0118 -13.76332,9.24588 -12.125,25.125 1.34427,12.90493 9.40265,19.63443 18.8125,19.5 9.40985,-0.80656 15.99754,-3.49926 14.25,-21.78125 -1.34427,-13.30822 -6.7171,-21.37448 -19.21875,-22.71875 -0.58812,-0.084 -1.15699,-0.12421 -1.71875,-0.125 z m -346.3125,0.65625 c -12.501657,0 -20.433501,12.50017 -22.71875,36.5625 -1.88197,18.28199 7.128256,29.4375 23.125,29.4375 17.341008,0 19.21875,-18.81627 19.21875,-33.46875 -0.403279,-15.99674 -9.408591,-32.53125 -19.625,-32.53125 z m 131.875,1.46875 c -9.40985,0 -17.875,12.10152 -17.875,24.46875 -0.40328,11.02297 0.93779,25.2748 16.53125,25.8125 14.65248,0.40328 22.31598,-8.06975 21.375,-21.78125 -1.74755,-18.68527 -8.87386,-28.5 -20.03125,-28.5 z m 328.5,7.40625 c -10.59888,0.49278 -15.60399,7.44311 -14.34375,18.28125 1.74755,15.99674 8.06833,24.06547 17.34375,24.46875 7.52788,0 13.84375,-10.21463 13.84375,-20.96875 -0.40328,-8.87214 -2.1546,-21.24354 -14.65625,-21.78125 -0.75615,-0.0252 -1.48091,-0.0328 -2.1875,0 z m -153.8125,9.8125 c -10.60036,0.38447 -15.60093,6.42212 -14.71875,16 1.74754,13.84592 7.52468,21.375 16.53125,21.375 7.52788,0 14.25,-8.8714 14.25,-18.28125 0.40328,-7.93116 -0.93881,-18.55604 -13.84375,-19.09375 -0.75615,-0.0252 -1.51206,-0.0256 -2.21875,0 z m -82.46875,2.28125 c -9.81313,0 -15.59324,5.37877 -16.9375,20.03125 -0.94099,11.15739 5.77959,20.03125 18.28125,20.03125 9.81313,0 14.78771,-8.87386 14.25,-20.03125 -0.40328,-11.1574 -2.28554,-20.03125 -15.59375,-20.03125 z m -179.96875,2.15625 c -10.157794,0.43075 -15.193649,6.85552 -14.4375,16.9375 1.344264,14.65248 6.721606,22.72172 15.59375,23.125 7.52788,0 13.84672,-9.40859 14.25,-19.625 0.13442,-8.33444 -1.18287,-19.89979 -13.28125,-20.4375 -0.722542,-0.0252 -1.447814,-0.0287 -2.125,0 z M 232.875,262.9375 c -9.40985,0 -14.65276,5.37282 -15.59375,19.21875 -0.40328,10.21641 6.18287,18.68453 18.28125,18.28125 9.00657,0 13.44396,-8.46463 12.90625,-19.21875 -0.40327,-10.21641 -2.68881,-18.68453 -15.59375,-18.28125 z m 83.34375,11.15625 c -9.00658,0.40328 -14.78422,5.77908 -15.1875,19.625 -0.40328,10.21641 6.18287,18.68453 18.28125,18.28125 9.40985,-0.40327 13.84724,-8.87089 12.90625,-19.625 -0.80656,-10.21641 -3.09507,-18.68453 -16,-18.28125 z M 142.9375,275.4375 c -8.06559,0.40327 -12.90276,10.218 -13.84375,28.5 -0.94098,13.84592 5.24589,21.77828 16,21.375 11.56067,-0.40328 12.49406,-15.05839 11.6875,-25.8125 -0.53771,-12.50166 -7.12243,-24.46578 -13.84375,-24.0625 z M 454,283.90625 c -12.90494,0 -13.84427,16.93584 -12.5,29.4375 0.40328,14.78691 8.06587,29.4375 15.59375,29.4375 9.00657,0.40328 14.78422,-10.75417 15.1875,-32.53125 C 472.68453,293.71555 466.09837,283.90625 454,283.90625 z m -41,8.0625 c -14.2492,0 -20.97275,12.10048 -18.6875,27.15625 2.68853,20.02953 10.21464,27.15625 20.96875,27.15625 15.19019,-0.40328 16.53473,-12.10049 15.59375,-27.15625 -0.13443,-15.19019 -6.7176,-27.15625 -17.875,-27.15625 z m 146.90625,1.625 c -11.15739,0 -17.3125,7.65796 -17.3125,27.6875 -0.40328,14.78691 8.0633,26.74703 22.3125,26.34375 11.15739,-0.40328 16.13494,-12.49731 14.65625,-27.6875 -1.34426,-14.7869 -4.46606,-26.74703 -19.65625,-26.34375 z m -61.8125,4.5625 c -17.87871,0 -18.68156,18.6883 -17.875,32.9375 0.80656,16.93773 11.15859,33.46875 21.375,33.46875 12.50166,0.40328 20.02776,-12.50314 20.96875,-36.96875 0.94098,-18.28199 -8.472,-29.4375 -24.46875,-29.4375 z M 184.75,300.4375 c -9.40985,0 -15.59324,5.37877 -16.9375,20.03125 -1.34427,11.15739 5.37334,20.03125 17.875,20.03125 9.81313,0 15.19396,-8.87386 14.65625,-20.03125 C 199.94047,309.31136 198.05821,300.4375 184.75,300.4375 z m 180.53125,2.15625 c -15.99674,0 -23.66025,15.19321 -21.375,32.9375 C 346.99806,359.99686 355.06084,369 367.5625,369 c 16.93773,-0.40328 18.68156,-15.18676 17.875,-33.46875 -0.53771,-18.14757 -8.1923,-32.9375 -20.15625,-32.9375 z M 268.625,304.875 c -16.53445,-0.40328 -18.28125,18.6883 -18.28125,32.9375 -0.40327,17.34101 8.06187,34.81547 17.875,35.21875 11.96395,0.94099 19.496,-11.96544 21.78125,-36.96875 1.74754,-18.68528 -6.18481,-30.24651 -21.375,-31.1875 z m -45.5625,3.21875 c -9.40985,0.40328 -15.19047,7.12723 -15.59375,25.8125 -0.40328,13.7115 6.18287,24.87203 18.28125,24.46875 9.40985,-0.5377 13.81896,-12.10101 13.28125,-25.8125 -0.80655,-13.7115 -3.06381,-24.87203 -15.96875,-24.46875 z M 100.5,313.75 c -9.052078,0.42743 -16.984323,13.35234 -17.375,27.15625 0,12.50165 1.344035,28.62797 16.9375,29.03125 14.65248,0.94098 22.71926,-8.46903 21.375,-24.0625 -1.74755,-20.56724 -8.87386,-31.5873 -20.03125,-32.125 -0.29406,-0.0126 -0.61425,-0.0138 -0.90625,0 z m -44.90625,6.1875 c -13.089072,0.34909 -15.234323,12.01894 -15.625,26.34375 -0.40328,15.19019 4.836665,27.69047 15.1875,28.09375 13.308216,0.40328 20.565985,-11.55685 19.625,-26.34375 -1.344264,-20.02954 -7.524165,-27.69047 -17.875,-28.09375 -0.445288,-0.0126 -0.890272,-0.0113 -1.3125,0 z m 258.78125,3.09375 c -10.5629,0.22624 -17.2915,9.97681 -18.59375,27.6875 -0.94099,13.84592 6.72252,22.3125 21.375,22.3125 15.59347,0 16.93453,-14.24589 16.53125,-25 -0.40328,-12.50166 -8.8714,-25 -18.28125,-25 -0.34867,-0.0126 -0.69051,-0.007 -1.03125,0 z m -166.46875,16.125 c -15.59346,0.40328 -17.34375,15.18973 -17.34375,33.875 0.26885,18.68528 6.59558,34.28125 18.15625,34.28125 15.19019,0 22.31004,-15.59597 20.5625,-34.28125 -2.68853,-25.00331 -9.81432,-34.27828 -21.375,-33.875 z m 296.90625,9.375 c -0.33787,-9.4e-4 -0.68678,0.0145 -1.03125,0.0312 -15.19019,0.40328 -16.5377,13.31227 -16,30.25 1.20984,16.93773 7.93635,30.78125 19.09375,30.78125 14.65248,0 21.37603,-13.84352 18.6875,-30.78125 -2.99519,-21.61745 -10.27613,-30.25225 -20.75,-30.28125 z m -244.09375,5.40625 c -9.40985,-0.40328 -17.875,15.99332 -17.875,33.46875 -0.26886,15.05576 1.50029,34.69047 17.09375,35.09375 14.65248,0.94098 22.71926,-10.75519 21.375,-29.84375 -1.74755,-25.40659 -8.89865,-38.71875 -20.59375,-38.71875 z m 200.59375,7.9375 c -12.50166,0 -20.03073,12.90591 -21.375,38.3125 -0.94098,18.68528 8.06576,30.78125 24.0625,30.78125 17.47544,0 18.28125,-20.02559 18.28125,-34.8125 C 421.34026,379.21852 411.5289,361.875 401.3125,361.875 z m 138.71875,2.6875 c -12.50166,0.5377 -13.04416,11.56238 -11.96875,20.03125 0.94098,10.21641 8.06587,19.625 15.59375,19.625 8.87215,0 13.84672,-8.06627 14.25,-22.71875 0.40328,-10.75412 -6.31433,-17.34078 -17.875,-16.9375 z m -44.625,14.25 c -10.21641,0.40328 -17.87552,17.34352 -16.53125,34.28125 0.94098,15.19019 4.56821,34.40974 22.3125,33.46875 16.53445,-0.94098 24.05758,-12.50223 20.5625,-31.1875 -4.43608,-24.46561 -13.8421,-36.96578 -26.34375,-36.5625 z m -149.21875,3.5 c -15.19019,0.40328 -16.94098,13.84352 -16,30.78125 0.26886,17.07216 6.99886,30.78125 18.15625,30.78125 14.65248,0 21.36957,-13.84352 19.21875,-30.78125 -3.09181,-22.71807 -10.21761,-30.78125 -21.375,-30.78125 z m -96.78125,0.53125 c -9.40985,0 -16.93453,15.18778 -16.53125,30.78125 0.5377,12.90493 2.68779,30.25 18.28125,30.25 14.65248,0 21.77582,-10.75622 19.625,-27.15625 -2.68853,-22.71806 -10.21761,-34.27828 -21.375,-33.875 z M 80.75,385.125 c -9.537023,0.43075 -14.913423,6.85552 -14.03125,16.9375 1.344264,14.65248 6.187385,22.72172 14.65625,23.125 7.124601,0 13.3125,-9.40859 13.3125,-19.625 0.940985,-8.46887 0.129629,-20.03422 -11.96875,-20.4375 -0.672132,-0.0252 -1.332948,-0.0287 -1.96875,0 z m 218.65625,13.1875 c -9.81313,0 -15.59323,7.65796 -16.9375,27.6875 -0.94098,15.19018 5.78257,27.6875 18.6875,27.6875 10.21641,0 15.05656,-12.49732 14.25,-27.6875 -0.40328,-15.19019 -2.15408,-27.28422 -16,-27.6875 z m -174.34375,7.25 c -11.56067,0 -17.34078,13.44372 -16.9375,29.84375 0,16.93773 2.28153,29.84672 17.875,30.25 11.56067,0 18.28371,-7.93522 20.03125,-30.25 1.34427,-16.53445 -6.31627,-29.84375 -20.96875,-29.84375 z M 452.25,426 c -13.03936,0.5377 -20.15922,11.55776 -20.5625,32.125 -0.40328,15.59347 8.46555,25.00349 25,24.0625 17.34101,-0.40327 17.74703,-16.39517 17.34375,-29.03125 C 472.82142,439.31032 462.46641,425.59672 452.25,426 z m -276.78125,3.625 c -15.59346,0 -16.93453,16.92939 -16.53125,29.96875 0,15.05576 8.46515,30.25 17.875,30.25 11.56067,0.40328 18.2837,-11.15396 20.03125,-33.46875 0.94098,-16.53445 -6.72252,-26.75 -21.375,-26.75 z m 216,20.5 c -0.39463,0.01 -0.78422,0.0331 -1.1875,0.0625 -17.34101,0.94099 -18.28177,15.9928 -16.9375,34.8125 1.34426,18.68527 9.28256,33.74703 22.1875,33.34375 16.53445,-0.94098 23.65431,-16.53348 20.5625,-35.21875 -4.29744,-24.22197 -12.39155,-33.31144 -24.625,-33 z m -160.90625,5.3125 c -8.87215,0 -15.99703,15.19424 -15.59375,30.25 0.53771,13.03937 2.30981,30.375 17.5,30.375 13.84592,0 20.56947,-10.21852 18.6875,-27.15625 -2.68853,-22.31479 -9.83964,-33.87203 -20.59375,-33.46875 z m 103.25,7.625 c -6.13741,0.052 -13.27427,1.375 -20.28125,1.375 -32.5312,0 -40.07838,0.80735 -39.40625,14.25 0,47.18367 3.62655,76.62437 -0.40625,86.4375 -5.44339,13.03882 -31.01868,7.84452 -29.15625,19.09375 -0.40404,1.14673 -0.31376,2.56391 0.40625,4.3125 3.60742,8.81815 35.74129,0.50929 44.84375,-4.34375 -6.58747,26.84145 -45.97078,25.77533 -47.28125,34.03125 -0.0717,0.44047 -0.0731,0.85654 -0.0312,1.25 -0.11791,0.24671 -0.17674,0.5166 -0.21875,0.78125 -0.94099,5.78033 7.93379,7.53228 25.8125,4.84375 22.18036,-5.24263 50.24823,-34.68504 71.21875,-32.9375 8.87215,0.94099 34.84609,14.78422 45.0625,15.1875 13.03936,0.94099 16.53074,-3.09621 17.875,-4.84375 0.94721,-1.12311 1.04893,-2.06268 0.53125,-2.90625 7.88755,-10.68258 -48.8125,-5.38173 -48.8125,-37.5625 -0.40328,-14.65248 -4.43801,-43.69053 -3.09375,-76.625 0.58812,-18.98773 -6.83349,-22.43039 -17.0625,-22.34375 z"
     transform="translate(-2.8000057,74.1)"
     id="path25"
     style="fill:#ffffff" /></svg>